<svg xmlns="http://www.w3.org/2000/svg" version="1.1" viewBox="0 0 512 512"><rect x="0" y="0" width="512" height="512" fill="#133f27"/><g transform="translate(80 80) scale(5.5)"><circle cx="32" cy="32" r="28" fill="#133f27"/><circle cx="32" cy="32" r="25.5" fill="#ffffff"/><path d="M32 11C29 18 18 23 18 34C18 43 26 46 30.5 50.5L30.5 53C30.5 55 33.5 55 33.5 53L33.5 50.5C38 46 46 43 46 34C46 23 35 18 32 11ZM32 28C26 29 24 33 24.5 38C25 43 28 46 31 48C29 43 29.3 39 31.2 35.5C32.5 33 32.8 30.5 32 28ZM34 28.8C39 31 40.5 35.5 38.8 40.3C37.5 44 34.7 46.5 32.8 47.8C34.3 43.6 33.9 40.9 33.3 38.3C32.4 34.5 35 32.2 34 28.8Z" fill="#1f6b3a" fill-rule="evenodd"/></g></svg>