<svg xmlns="http://www.w3.org/2000/svg" version="1.1" viewBox="0 0 320 240"><rect x="0" y="0" width="320" height="240" rx="2" fill="#e0f0e4"/><circle cx="160" cy="120" r="90" fill="#ffffff" stroke="#141a16" stroke-width="2"/><circle cx="160" cy="120" r="80" fill="none" stroke="#1f6b3a" stroke-width="2"/><g transform="translate(20 34) scale(0.7)"><g transform="translate(0 0)"><path d="M160 52C148 77 116 91 116 125C116 153 139 169 160 187C181 169 204 153 204 125C204 91 172 77 160 52Z" fill="#1f6b3a" stroke="#141a16" stroke-width="2"/><path d="M160 64V174M133 109L160 129L187 109M131 139L160 157L189 139" fill="none" stroke="#d4ecd9" stroke-width="2" stroke-linecap="round"/></g></g><g transform="translate(76 34) scale(0.7)"><g transform="translate(0 0)"><path d="M160 52C148 77 116 91 116 125C116 153 139 169 160 187C181 169 204 153 204 125C204 91 172 77 160 52Z" fill="#1f6b3a" stroke="#141a16" stroke-width="2"/><path d="M160 64V174M133 109L160 129L187 109M131 139L160 157L189 139" fill="none" stroke="#d4ecd9" stroke-width="2" stroke-linecap="round"/></g></g><path d="M27 195L48 216M48 195L27 216" fill="none" stroke="#141a16" stroke-width="2" stroke-linecap="round"/></svg>