<svg xmlns="http://www.w3.org/2000/svg" version="1.1" viewBox="0 0 96 96"><g transform="translate(16 0)"><path d="M32 4a28 28 0 1 1 0 56a28 28 0 1 1 0 -56ZM32 6.5a25.5 25.5 0 1 1 0 51a25.5 25.5 0 1 1 0 -51ZM32 9a23 23 0 1 1 0 46a23 23 0 1 1 0 -46ZM32 10a22 22 0 1 1 0 44a22 22 0 1 1 0 -44Z" fill="#ffffff" fill-rule="evenodd"/><path d="M30.7 4H33.3V9H30.7ZM30.7 55H33.3V60H30.7ZM4 30.7H9V33.3H4ZM55 30.7H60V33.3H55Z" fill="#ffffff"/><path d="M32 11C29 18 18 23 18 34C18 43 26 46 30.5 50.5L30.5 53C30.5 55 33.5 55 33.5 53L33.5 50.5C38 46 46 43 46 34C46 23 35 18 32 11ZM32 28C26 29 24 33 24.5 38C25 43 28 46 31 48C29 43 29.3 39 31.2 35.5C32.5 33 32.8 30.5 32 28ZM34 28.8C39 31 40.5 35.5 38.8 40.3C37.5 44 34.7 46.5 32.8 47.8C34.3 43.6 33.9 40.9 33.3 38.3C32.4 34.5 35 32.2 34 28.8Z" fill="#d4ecd9" fill-rule="evenodd"/></g><path d="M4.5 87V73.7H7.4V84.4H12.5V87ZM18.6 87.2Q17.5 87.2 16.6 86.9Q15.7 86.5 15.1 85.8Q14.4 85.1 14.1 84.2Q13.8 83.2 13.8 82Q13.8 80.8 14.1 79.9Q14.4 78.9 15 78.2Q15.6 77.5 16.5 77.2Q17.4 76.8 18.5 76.8Q19.7 76.8 20.6 77.2Q21.5 77.6 22 78.3Q22.6 79 22.9 80Q23.1 80.9 23.1 81.9V82.7H16.7V82.9Q16.7 83.9 17.2 84.4Q17.8 85 18.9 85Q19.8 85 20.3 84.7Q20.9 84.3 21.4 83.8L22.8 85.6Q22.1 86.4 21 86.8Q20 87.2 18.6 87.2ZM18.5 78.9Q17.7 78.9 17.2 79.4Q16.7 80 16.7 80.9V81.1H20.2V80.9Q20.2 80 19.8 79.4Q19.4 78.9 18.5 78.9ZM32.5 87Q31.7 87 31.2 86.5Q30.7 86 30.6 85.3H30.5Q30.2 86.2 29.5 86.7Q28.7 87.2 27.5 87.2Q26 87.2 25.2 86.4Q24.4 85.6 24.4 84.3Q24.4 82.7 25.6 82Q26.7 81.2 28.7 81.2H30.3V80.6Q30.3 79.9 29.9 79.4Q29.5 79 28.6 79Q27.8 79 27.3 79.4Q26.8 79.7 26.5 80.2L24.8 78.7Q25.4 77.8 26.4 77.3Q27.3 76.8 28.9 76.8Q31 76.8 32 77.7Q33.1 78.7 33.1 80.4V84.8H34V87ZM28.6 85.3Q29.3 85.3 29.8 85Q30.3 84.7 30.3 84V82.8H28.9Q27.3 82.8 27.3 83.9V84.2Q27.3 84.8 27.6 85Q28 85.3 28.6 85.3ZM36.4 79.2H35V77H36.4V75.8Q36.4 74.4 37.2 73.7Q37.9 72.9 39.4 72.9H41.2V75.1H39.2V77H41.2V79.2H39.2V87H36.4ZM47.4 87V73.7H53.7Q54.6 73.7 55.4 74.1Q56.1 74.4 56.6 74.9Q57.1 75.5 57.4 76.3Q57.7 77 57.7 78Q57.7 78.9 57.4 79.7Q57.1 80.5 56.6 81Q56.1 81.6 55.4 81.9Q54.6 82.2 53.7 82.2H50.3V87ZM50.3 79.7H53.3Q54 79.7 54.4 79.4Q54.7 79 54.7 78.4V77.6Q54.7 76.9 54.4 76.6Q54 76.2 53.3 76.2H50.3ZM62.5 87Q61.1 87 60.4 86.3Q59.7 85.6 59.7 84.3V72.9H62.5V84.8H63.8V87ZM72.9 87Q72.1 87 71.6 86.5Q71.1 86 71 85.3H70.8Q70.6 86.2 69.8 86.7Q69.1 87.2 67.9 87.2Q66.4 87.2 65.6 86.4Q64.8 85.6 64.8 84.3Q64.8 82.7 66 82Q67.1 81.2 69.1 81.2H70.7V80.6Q70.7 79.9 70.3 79.4Q69.9 79 69 79Q68.2 79 67.7 79.4Q67.2 79.7 66.9 80.2L65.2 78.7Q65.8 77.8 66.7 77.3Q67.7 76.8 69.2 76.8Q71.4 76.8 72.4 77.7Q73.5 78.7 73.5 80.4V84.8H74.4V87ZM69 85.3Q69.7 85.3 70.2 85Q70.7 84.7 70.7 84V82.8H69.3Q67.7 82.8 67.7 83.9V84.2Q67.7 84.8 68 85Q68.3 85.3 69 85.3ZM79.8 87Q78.3 87 77.6 86.3Q76.8 85.5 76.8 84.1V79.2H75.4V77H76.1Q76.7 77 76.9 76.7Q77.1 76.5 77.1 76V74.3H79.6V77H81.6V79.2H79.6V84.8H81.5V87ZM87.7 87.2Q86.6 87.2 85.7 86.9Q84.8 86.5 84.2 85.8Q83.6 85.1 83.3 84.2Q83 83.2 83 82Q83 80.8 83.3 79.9Q83.6 78.9 84.2 78.2Q84.8 77.5 85.6 77.2Q86.5 76.8 87.6 76.8Q88.9 76.8 89.7 77.2Q90.6 77.6 91.2 78.3Q91.7 79 92 80Q92.3 80.9 92.3 81.9V82.7H85.9V82.9Q85.9 83.9 86.4 84.4Q86.9 85 88.1 85Q88.9 85 89.5 84.7Q90 84.3 90.5 83.8L91.9 85.6Q91.3 86.4 90.2 86.8Q89.1 87.2 87.7 87.2ZM87.7 78.9Q86.8 78.9 86.3 79.4Q85.9 80 85.9 80.9V81.1H89.4V80.9Q89.4 80 88.9 79.4Q88.5 78.9 87.7 78.9Z" fill="#ffffff"/></svg>